<?xml version="1.0" encoding="utf-8"?>
<!-- Generator: Adobe Illustrator 21.1.0, SVG Export Plug-In . SVG Version: 6.00 Build 0)  -->
<svg version="1.1" id="Layer_1" xmlns="http://www.w3.org/2000/svg" xmlns:xlink="http://www.w3.org/1999/xlink" x="0px" y="0px"
	 viewBox="0 0 89.2 83.8" style="enable-background:new 0 0 89.2 83.8;" xml:space="preserve">
<style type="text/css">
	.st0{fill:#FFFFFF;}
</style>
<g>
	<g transform="translate(0.000000,512.000000) scale(0.100000,-0.100000)">
		<path class="st0" d="M346.8,5116.2c-6.9,7.1-29.8,3.7-40.4-6c-5.4-4.9-8-13.4-5.7-18.1c0.9-2,85.2-174.2,187.3-382.8
			c101.9-208.6,187.2-380.8,189.3-382.4c9.6-7.3,19.4-3.5,20.9,7.6c0.5,4.1-16.1,42.8-57.2,133.7
			c-31.7,70.4-110.2,244.3-174.3,386.3"/>
		<path class="st0" d="M12.7,4984c-9.5-5.9-14.1-13.2-12.3-19.6c0.7-2.8,26-32.8,56.5-66.7c54-60.6,448.2-502.1,510.1-571.7
			c20.8-23.4,33.5-36.1,37.6-37.9c12.4-5,22,1.3,18.5,12.4c-1.3,4.1-563.6,674.4-575,685.5C40.4,4993.1,26.1,4992.4,12.7,4984z"/>
	</g>
</g>
<g>
	<path class="st0" d="M76.3,5.3c-0.7,1.4-1.5,2.8-2.7,4c-1.1,1.2-2.5,2-3.9,2.8c-1.4,0.8-2.7,1.6-3.8,2.7c-1.1,1.1-1.9,2.4-2.6,3.9
		c-0.6,1.4-1.1,2.9-1.2,4.5c-0.1,1.5,0.2,3.1,0.5,4.6c0.3,1.6,0.6,3.2,0.5,4.9c-0.1,1.7-0.6,3.3-1.3,4.9c-0.7,1.5-1.6,3-2.8,4.2
		c-1.2,1.2-2.7,2.1-4.1,2.9c-1.4,0.8-2.7,1.6-3.7,2.6c-1,1-1.8,2.3-2.4,3.6c-0.6,1.4-1,2.8-1.1,4.2c-0.1,1.4,0.1,2.9,0.5,4.4
		c0.3,1.6,0.6,3.3,0.5,5.1c-0.1,1.8-0.7,3.5-1.4,5.1c-0.3,0.8-1.2,1.1-2,0.8s-1.1-1.2-0.8-2c0,0,0,0,0,0l0,0
		c0.6-1.3,1.1-2.7,1.3-4.1c0.2-1.4,0-2.8-0.3-4.4c-0.3-1.6-0.5-3.3-0.3-5.1c0.2-1.8,0.8-3.4,1.5-5c0.8-1.5,1.8-3,3-4.2
		c1.3-1.2,2.8-2.1,4.2-2.8c1.4-0.7,2.7-1.5,3.8-2.5c1.1-1,1.9-2.3,2.6-3.6c0.7-1.4,1.2-2.8,1.3-4.3c0.2-1.5,0-3-0.3-4.6
		c-0.3-1.6-0.5-3.2-0.3-4.9c0.2-1.7,0.7-3.2,1.4-4.7c0.7-1.4,1.7-2.8,2.9-3.9c1.2-1.1,2.6-1.9,4-2.7c1.4-0.7,2.8-1.5,4-2.6
		C74.7,8.1,75.6,6.7,76.3,5.3z"/>
</g>
<g>
	<path class="st0" d="M79.7,10.8c-0.7,1.4-1.5,2.8-2.6,3.9c-1.1,1.1-2.5,2-3.8,2.7c-1.4,0.8-2.7,1.6-3.8,2.7
		c-1.1,1.1-1.9,2.4-2.5,3.8c-0.6,1.4-1.1,2.9-1.2,4.4c-0.1,1.5,0.1,3,0.5,4.5c0.3,1.5,0.6,3.2,0.5,4.8c-0.1,1.7-0.6,3.3-1.3,4.8
		c-0.7,1.5-1.6,2.9-2.8,4.1c-1.2,1.2-2.6,2.1-4,2.9c-1.4,0.8-2.6,1.5-3.6,2.6c-1,1-1.8,2.2-2.4,3.6c-0.6,1.3-1,2.7-1.1,4.1
		c-0.1,1.4,0.1,2.8,0.5,4.3c0.3,1.5,0.6,3.3,0.5,5c-0.1,1.8-0.6,3.5-1.3,5c-0.3,0.8-1.2,1.1-2,0.8c-0.8-0.3-1.1-1.2-0.8-2
		c0,0,0,0,0,0l0,0c0.6-1.3,1.1-2.6,1.2-4c0.2-1.4,0-2.8-0.3-4.3c-0.3-1.5-0.5-3.3-0.3-5c0.2-1.7,0.8-3.4,1.5-4.9
		c0.8-1.5,1.7-2.9,3-4.1c1.2-1.2,2.7-2,4.1-2.7c1.4-0.7,2.7-1.4,3.7-2.4c1.1-1,1.9-2.2,2.6-3.5c0.7-1.3,1.1-2.8,1.3-4.2
		c0.2-1.5,0-3-0.3-4.5c-0.3-1.5-0.5-3.2-0.3-4.8c0.2-1.6,0.7-3.2,1.4-4.6c0.7-1.4,1.6-2.8,2.8-3.9c1.2-1.1,2.6-1.9,4-2.6
		c1.4-0.7,2.8-1.5,3.9-2.5C78.1,13.5,79,12.2,79.7,10.8z"/>
</g>
<g>
	<path class="st0" d="M85.1,15.6c-0.7,1.3-1.5,2.6-2.6,3.7c-1.1,1.1-2.4,1.8-3.7,2.5c-1.3,0.7-2.6,1.5-3.7,2.5
		c-1.1,1-1.9,2.2-2.5,3.6c-0.6,1.3-1.1,2.7-1.2,4.1c-0.2,1.4,0,2.9,0.3,4.3c0.2,1.5,0.5,3.1,0.3,4.6c-0.2,1.6-0.7,3.1-1.4,4.5
		c-0.7,1.4-1.6,2.7-2.8,3.9c-1.2,1.1-2.6,1.9-3.9,2.6c-1.3,0.7-2.5,1.4-3.5,2.4c-1,0.9-1.7,2.1-2.4,3.3c-0.6,1.3-1,2.6-1.2,3.9
		c-0.1,1.3,0,2.7,0.3,4.1c0.2,1.5,0.5,3.1,0.3,4.8c-0.2,1.7-0.7,3.3-1.4,4.8c-0.4,0.7-1.3,1.1-2,0.7c-0.7-0.4-1.1-1.3-0.7-2
		c0,0,0,0,0,0l0,0c0.6-1.2,1.1-2.5,1.3-3.7c0.2-1.3,0.1-2.6-0.1-4.1c-0.2-1.5-0.3-3.2-0.1-4.8c0.2-1.7,0.8-3.2,1.6-4.6
		c0.8-1.4,1.7-2.7,3-3.8c1.2-1.1,2.7-1.9,4-2.5c1.3-0.7,2.6-1.3,3.6-2.2c1-0.9,1.9-2.1,2.6-3.3c0.7-1.3,1.2-2.6,1.4-4
		c0.2-1.4,0.1-2.8-0.1-4.3c-0.2-1.5-0.3-3.1-0.1-4.6c0.2-1.6,0.8-3,1.5-4.4c0.8-1.3,1.7-2.6,2.8-3.6c1.2-1,2.5-1.7,3.9-2.4
		c1.3-0.7,2.7-1.3,3.8-2.3C83.5,18.2,84.4,16.9,85.1,15.6z"/>
</g>
<g>
	<path class="st0" d="M89.2,23.5c-0.6,1.2-1.4,2.4-2.5,3.3c-1,1-2.2,1.6-3.5,2.3c-1.2,0.6-2.4,1.3-3.4,2.2c-1,0.9-1.7,2-2.4,3.2
		c-0.6,1.2-1.1,2.5-1.2,3.8c-0.2,1.3,0,2.6,0.2,4c0.2,1.4,0.4,2.8,0.2,4.3c-0.2,1.5-0.7,2.8-1.3,4.1c-0.7,1.3-1.5,2.5-2.6,3.5
		c-1.1,1-2.4,1.8-3.6,2.4c-1.2,0.6-2.3,1.3-3.2,2.1c-0.9,0.8-1.6,1.9-2.2,3c-0.6,1.1-1,2.3-1.1,3.5c-0.2,1.2,0,2.4,0.2,3.8
		c0.2,1.4,0.4,2.9,0.2,4.5c-0.2,1.6-0.7,3-1.4,4.4c-0.4,0.7-1.3,1-2,0.7c-0.7-0.4-1-1.3-0.7-2c0,0,0,0,0-0.1l0,0
		c0.6-1.1,1.1-2.2,1.3-3.4c0.2-1.2,0.2-2.4,0-3.7c-0.1-1.4-0.2-2.9,0-4.4c0.3-1.5,0.9-2.9,1.6-4.2c0.7-1.3,1.7-2.5,2.8-3.5
		c1.2-1,2.5-1.7,3.7-2.3c1.2-0.6,2.4-1.2,3.3-2c1-0.8,1.7-1.8,2.4-3c0.6-1.1,1.1-2.3,1.4-3.6c0.2-1.3,0.2-2.6,0-3.9
		c-0.1-1.4-0.2-2.8,0-4.2c0.2-1.4,0.8-2.8,1.5-4c0.7-1.2,1.6-2.4,2.7-3.3c1.1-0.9,2.3-1.6,3.6-2.1c1.2-0.6,2.5-1.2,3.5-2.1
		C87.7,25.7,88.5,24.6,89.2,23.5z"/>
</g>
<path class="st0" d="M87.8,57.2c-1,14.9-13.6,26.6-28.5,26.6S31.8,72.1,30.7,57.2C49.7,57.2,68.7,57.2,87.8,57.2z"/>
</svg>
