<?xml version="1.0" encoding="utf-8"?>
<!-- Generator: Adobe Illustrator 21.1.0, SVG Export Plug-In . SVG Version: 6.00 Build 0)  -->
<svg version="1.1" id="Layer_1" xmlns="http://www.w3.org/2000/svg" xmlns:xlink="http://www.w3.org/1999/xlink" x="0px" y="0px"
	 viewBox="0 0 278 222" style="enable-background:new 0 0 278 222;" xml:space="preserve">
<style type="text/css">
	.st0{fill:#445C2B;}
	.st1{fill:#FFFFFF;}
	.st2{fill:none;}
</style>
<g id="Layer_2">
	<rect x="-2.5" y="-5.3" class="st0" width="282.4" height="229.5"/>
</g>
<g id="Layer_1_1_">
	<g>
		<g transform="translate(0.000000,512.000000) scale(0.100000,-0.100000)">
			<path class="st1" d="M1213.5,5088c-15.6,16.3-67.7,8.4-91.8-13.7c-12.3-11.2-18.1-30.5-12.9-41.2c2-4.5,193.5-395.6,425.4-869.5
				c231.5-473.8,425.2-865,430.1-868.5c21.7-16.5,44.1-8,47.5,17.2c1.3,9.2-36.6,97.2-129.9,303.7c-72,160-250.3,554.9-396,877.6"/>
			<path class="st1" d="M454.7,4787.7c-21.6-13.3-31.9-30.1-27.9-44.6c1.5-6.3,59.1-74.4,128.4-151.6
				C677.9,4453.9,1573.2,3451,1713.9,3293c47.1-53.1,76.2-82.1,85.3-86c28-11.4,50,2.9,42,28.2C1838.3,3244.3,561,4767,535.1,4792.2
				C517.7,4808.3,485.2,4806.8,454.7,4787.7z"/>
		</g>
	</g>
	<g>
		<path class="st1" d="M216,14.5c-1.5,3.2-3.5,6.4-6,9c-2.5,2.7-5.7,4.6-8.8,6.3c-3.1,1.8-6.2,3.6-8.7,6.2c-2.5,2.5-4.3,5.6-5.9,8.8
			c-1.4,3.2-2.4,6.7-2.7,10.1c-0.3,3.5,0.3,7,1.1,10.5c0.7,3.5,1.4,7.3,1.1,11.2c-0.3,3.8-1.4,7.6-2.9,11.1
			c-1.5,3.4-3.6,6.7-6.4,9.5c-2.8,2.8-6.2,4.9-9.2,6.6c-3.1,1.8-6,3.6-8.3,5.9c-2.4,2.4-4.1,5.2-5.5,8.3s-2.2,6.3-2.5,9.5
			c-0.3,3.2,0.3,6.4,1.1,10.1c0.7,3.5,1.4,7.6,1.1,11.6c-0.3,4.1-1.5,8-3.1,11.6c-0.8,1.8-2.8,2.5-4.6,1.8c-1.8-0.8-2.5-2.8-1.8-4.6
			v-0.1v-0.1c1.4-2.9,2.5-6,2.8-9.2c0.4-3.1,0-6.4-0.6-9.9c-0.6-3.5-1.1-7.6-0.7-11.6c0.4-4.1,1.7-7.8,3.4-11.4
			c1.8-3.4,4.1-6.7,6.9-9.5c2.9-2.8,6.3-4.6,9.5-6.3s6.2-3.4,8.7-5.6c2.5-2.2,4.3-5.2,6-8.3c1.5-3.1,2.7-6.4,3.1-9.8s0-6.9-0.7-10.5
			c-0.6-3.6-1.1-7.4-0.7-11.2c0.4-3.8,1.7-7.4,3.2-10.6c1.7-3.2,3.8-6.4,6.6-9c2.7-2.5,6-4.3,9.2-6c3.2-1.7,6.4-3.4,9-5.9
			C212.2,20.7,214.3,17.7,216,14.5z"/>
	</g>
	<g>
		<path class="st1" d="M223.7,27c-1.5,3.2-3.4,6.3-5.9,8.8c-2.5,2.5-5.6,4.5-8.7,6.2c-3.1,1.8-6,3.6-8.5,6c-2.4,2.5-4.3,5.5-5.7,8.5
			c-1.4,3.2-2.4,6.6-2.7,9.9c-0.3,3.4,0.3,6.7,1.1,10.2c0.7,3.5,1.4,7.1,1.1,10.9c-0.3,3.8-1.4,7.4-2.8,10.8
			c-1.5,3.4-3.6,6.6-6.3,9.4s-6,4.8-9.1,6.4c-3.1,1.8-5.9,3.5-8.1,5.7c-2.2,2.2-3.9,5-5.3,8.1c-1.3,3.1-2.2,6.2-2.4,9.2
			c-0.3,3.2,0.3,6.3,1,9.8c0.7,3.5,1.4,7.4,1.1,11.5c-0.3,4.1-1.4,7.8-3.1,11.4c-0.8,1.8-2.8,2.5-4.6,1.8c-1.8-0.8-2.5-2.8-1.8-4.6
			v-0.1V167c1.4-2.9,2.5-5.9,2.8-9c0.4-3.1,0-6.3-0.6-9.8c-0.6-3.5-1.1-7.4-0.7-11.4c0.4-3.9,1.7-7.7,3.4-11.1
			c1.7-3.4,3.9-6.6,6.7-9.2c2.8-2.7,6.3-4.6,9.4-6.2c3.2-1.7,6-3.2,8.4-5.5c2.4-2.2,4.3-5,5.9-8c1.5-3.1,2.7-6.3,2.9-9.5
			c0.4-3.4,0-6.7-0.6-10.2s-1.1-7.3-0.7-10.9c0.4-3.6,1.7-7.1,3.2-10.5c1.7-3.2,3.8-6.3,6.4-8.8s5.9-4.3,9-5.9
			c3.1-1.7,6.3-3.4,8.8-5.7C220.1,33.1,222.2,30,223.7,27z"/>
	</g>
	<g>
		<path class="st1" d="M236,37.9c-1.5,3.1-3.5,5.9-5.9,8.3c-2.5,2.4-5.5,4.2-8.5,5.7c-2.9,1.5-5.9,3.4-8.3,5.6
			c-2.4,2.2-4.2,5-5.7,8.1c-1.4,2.9-2.5,6.2-2.8,9.4c-0.4,3.2,0,6.4,0.6,9.8c0.6,3.4,1,7,0.6,10.5c-0.4,3.6-1.5,7-3.1,10.2
			c-1.7,3.2-3.6,6.3-6.3,8.8c-2.7,2.5-5.9,4.5-8.8,6c-2.9,1.5-5.7,3.2-8,5.3c-2.2,2.1-3.9,4.8-5.3,7.6c-1.4,2.9-2.4,5.9-2.7,8.8
			c-0.3,2.9,0,6,0.6,9.4s1.1,7.1,0.7,11.1c-0.4,3.9-1.7,7.6-3.2,10.9c-0.8,1.7-2.9,2.5-4.6,1.7c-1.7-0.8-2.5-2.9-1.7-4.6v-0.1v-0.1
			c1.4-2.8,2.5-5.6,2.9-8.4c0.4-2.9,0.3-6-0.1-9.4c-0.4-3.4-0.8-7.1-0.1-10.9c0.6-3.8,2-7.3,3.6-10.5c1.8-3.2,3.9-6.2,6.7-8.7
			c2.8-2.5,6.2-4.2,9.1-5.7c3.1-1.5,5.9-2.9,8.3-5c2.4-2.1,4.2-4.6,5.9-7.4c1.5-2.9,2.7-5.9,3.2-9.1s0.3-6.4-0.1-9.8
			c-0.4-3.4-0.7-7-0.1-10.5c0.6-3.5,1.8-6.9,3.5-9.9c1.7-3.1,3.8-5.9,6.4-8.3c2.7-2.4,5.7-3.9,8.8-5.5c3.1-1.5,6-3.1,8.5-5.3
			C232.2,43.6,234.3,40.8,236,37.9z"/>
	</g>
	<g>
		<path class="st1" d="M240.7,55c-1.3,2.5-2.8,5-4.9,7s-4.6,3.5-7.1,4.9c-2.5,1.4-4.9,2.8-6.9,4.8c-2,2-3.5,4.2-4.8,6.7
			c-1.1,2.5-2,5.2-2.2,7.8c-0.3,2.7,0.1,5.3,0.6,8.1c0.6,2.8,1,5.9,0.6,8.8c-0.3,3.1-1.3,6-2.5,8.7c-1.4,2.7-3.1,5.3-5.3,7.4
			c-2.2,2.2-4.9,3.8-7.4,5.2c-2.5,1.4-4.8,2.7-6.4,4.5c-1.8,1.8-3.2,3.9-4.3,6.3c-1.1,2.4-1.8,4.8-2.1,7.3c-0.3,2.4,0.1,4.9,0.6,7.7
			c0.6,2.8,1,6,0.6,9.4c-0.3,3.4-1.4,6.4-2.7,9.2c-0.8,1.8-2.9,2.5-4.6,1.7c-1.7-0.8-2.5-2.9-1.7-4.6v-0.1v-0.1
			c1.1-2.2,2.1-4.5,2.4-6.9c0.4-2.4,0.1-4.9-0.1-7.7c-0.4-2.8-0.7-6-0.1-9.2c0.4-3.2,1.7-6.2,3.1-9c1.5-2.7,3.4-5.3,5.7-7.4
			c2.4-2.1,5.2-3.6,7.7-4.8c2.5-1.3,4.9-2.4,6.9-4.2c2-1.7,3.5-3.8,4.9-6.2c1.3-2.4,2.2-4.9,2.7-7.4c0.4-2.7,0.1-5.3-0.1-8.1
			c-0.4-2.8-0.7-5.9-0.1-8.8c0.4-2.9,1.5-5.7,2.9-8.4c1.4-2.5,3.2-4.9,5.5-6.9s4.8-3.4,7.4-4.6c2.5-1.3,5-2.5,7.1-4.5
			C237.6,59.8,239.2,57.5,240.7,55z"/>
	</g>
	<path class="st1" d="M241.9,132.3c-2.4,33.8-30.8,60.4-64.7,60.4s-62.4-26.6-64.7-60.4C155.6,132.3,198.8,132.3,241.9,132.3z"/>
	<rect x="157.6" y="117.4" class="st2" width="119.4" height="57.9"/>
	<rect x="-1.2" y="-5.2" class="st2" width="269.5" height="214.2"/>
</g>
</svg>
