<?xml version="1.0" encoding="utf-8"?>
<!-- Generator: Adobe Illustrator 21.1.0, SVG Export Plug-In . SVG Version: 6.00 Build 0)  -->
<svg version="1.1" id="Layer_1" xmlns="http://www.w3.org/2000/svg" xmlns:xlink="http://www.w3.org/1999/xlink" x="0px" y="0px"
	 viewBox="0 0 278 222" style="enable-background:new 0 0 278 222;" xml:space="preserve">
<style type="text/css">
	.st0{fill:#FFFFFF;}
	.st1{fill:none;}
</style>
<g id="Layer_1_1_">
	<g>
		<g transform="translate(0.000000,512.000000) scale(0.100000,-0.100000)">
			<path class="st0" d="M944.4,5079.8c-17.8,18.6-77.6,9.6-105.2-15.7c-14.1-12.8-20.7-35-14.8-47.2
				c2.2-5.1,221.8-453.3,487.5-996.4c265.3-542.9,487.2-991.3,492.8-995.3c24.9-18.9,50.6-9.2,54.4,19.8
				c1.4,10.6-41.9,111.4-148.9,348c-82.5,183.4-286.8,635.9-453.8,1005.8"/>
			<path class="st0" d="M74.8,4735.7c-24.7-15.3-36.6-34.5-32-51.1c1.8-7.2,67.8-85.3,147.1-173.8
				c140.7-157.7,1166.7-1307,1327.9-1488.2c54-60.9,87.4-94.1,97.8-98.6c32.1-13,57.3,3.4,48.2,32.3
				C1660.4,2967,196.7,4711.9,167,4740.8C147.1,4759.3,109.8,4757.5,74.8,4735.7z"/>
		</g>
	</g>
	<g>
		<path class="st0" d="M202.9,17c-1.8,3.7-4,7.4-6.9,10.3c-2.9,3.1-6.6,5.3-10.1,7.2c-3.5,2.1-7.1,4.2-10,7.1
			c-2.9,2.9-5,6.4-6.7,10.1c-1.6,3.7-2.7,7.7-3.1,11.6c-0.3,4,0.3,8,1.3,12c0.8,4,1.6,8.4,1.3,12.8c-0.3,4.3-1.6,8.7-3.4,12.7
			c-1.8,3.9-4.2,7.7-7.4,10.9c-3.2,3.2-7.1,5.6-10.6,7.5c-3.5,2.1-6.9,4.2-9.5,6.7c-2.7,2.7-4.7,5.9-6.3,9.5
			c-1.6,3.5-2.6,7.2-2.9,10.9c-0.3,3.7,0.3,7.4,1.3,11.6c0.8,4,1.6,8.7,1.3,13.3c-0.3,4.7-1.8,9.2-3.5,13.3c-1,2.1-3.2,2.9-5.3,2.1
			c-2.1-1-2.9-3.2-2.1-5.3v-0.2v-0.2c1.6-3.4,2.9-6.9,3.2-10.6c0.5-3.5,0-7.4-0.6-11.4c-0.6-4-1.3-8.7-0.8-13.3
			c0.5-4.7,1.9-9,3.9-13c2.1-3.9,4.7-7.7,7.9-10.9c3.4-3.2,7.2-5.3,10.9-7.2s7.1-3.9,10-6.4c2.9-2.6,5-5.9,6.9-9.5
			c1.8-3.5,3.1-7.4,3.5-11.2c0.5-3.9,0-7.9-0.8-12c-0.6-4.2-1.3-8.5-0.8-12.8s1.9-8.5,3.7-12.2c1.9-3.7,4.3-7.4,7.5-10.3
			c3.1-2.9,6.9-5,10.6-6.9c3.7-1.9,7.4-3.9,10.3-6.7C198.6,24,201,20.7,202.9,17z"/>
	</g>
	<g>
		<path class="st0" d="M211.7,31.3c-1.8,3.7-3.9,7.2-6.7,10.1c-2.9,2.9-6.4,5.1-10,7.1c-3.5,2.1-6.9,4.2-9.8,6.9
			c-2.7,2.9-5,6.3-6.6,9.8c-1.6,3.7-2.7,7.5-3.1,11.4c-0.3,3.9,0.3,7.7,1.3,11.7c0.8,4,1.6,8.2,1.3,12.5c-0.3,4.3-1.6,8.5-3.2,12.4
			c-1.8,3.9-4.2,7.5-7.2,10.8c-3.1,3.2-6.9,5.5-10.4,7.4c-3.5,2.1-6.7,4-9.3,6.6c-2.6,2.6-4.5,5.8-6.1,9.3
			c-1.4,3.5-2.6,7.1-2.7,10.6c-0.3,3.7,0.3,7.2,1.1,11.2s1.6,8.5,1.3,13.2c-0.3,4.7-1.6,9-3.5,13c-1,2.1-3.2,2.9-5.3,2.1
			c-2.1-1-2.9-3.2-2.1-5.3v-0.2v-0.2c1.6-3.4,2.9-6.7,3.2-10.3c0.5-3.5,0-7.2-0.6-11.2s-1.3-8.5-0.8-13s1.9-8.8,3.9-12.7
			c1.9-3.9,4.5-7.5,7.7-10.6c3.2-3.1,7.2-5.3,10.8-7.1c3.7-1.9,6.9-3.7,9.6-6.3s5-5.8,6.7-9.2c1.8-3.5,3.1-7.2,3.4-10.9
			c0.5-3.9,0-7.7-0.6-11.7c-0.6-4-1.3-8.4-0.8-12.5c0.5-4.2,1.9-8.2,3.7-12c1.9-3.7,4.3-7.2,7.4-10.1c3.1-2.9,6.7-5,10.3-6.7
			c3.5-1.9,7.2-3.9,10.1-6.6C207.6,38.3,210,34.8,211.7,31.3z"/>
	</g>
	<g>
		<path class="st0" d="M225.9,43.8c-1.8,3.5-4,6.7-6.7,9.5c-2.9,2.7-6.3,4.8-9.8,6.6c-3.4,1.8-6.7,3.9-9.5,6.4
			c-2.7,2.6-4.8,5.8-6.6,9.3c-1.6,3.4-2.9,7.1-3.2,10.8c-0.5,3.7,0,7.4,0.6,11.2s1.1,8,0.6,12c-0.5,4.2-1.8,8-3.5,11.7
			c-1.9,3.7-4.2,7.2-7.2,10.1c-3.1,2.9-6.7,5.1-10.1,6.9s-6.6,3.7-9.2,6.1c-2.6,2.4-4.5,5.5-6.1,8.7c-1.6,3.4-2.7,6.7-3.1,10.1
			c-0.3,3.4,0,6.9,0.6,10.8c0.6,3.9,1.3,8.2,0.8,12.7c-0.5,4.5-1.9,8.7-3.7,12.5c-1,1.9-3.4,2.9-5.3,1.9c-1.9-1-2.9-3.4-1.9-5.3
			v-0.2v-0.2c1.6-3.2,2.9-6.4,3.4-9.6c0.5-3.4,0.3-6.9-0.2-10.8s-1-8.2-0.2-12.5c0.6-4.3,2.2-8.4,4.2-12c2.1-3.7,4.5-7.1,7.7-10
			c3.2-2.9,7.1-4.8,10.4-6.6c3.5-1.8,6.7-3.4,9.5-5.8c2.7-2.4,4.8-5.3,6.7-8.5c1.8-3.4,3.1-6.7,3.7-10.4s0.3-7.4-0.2-11.2
			c-0.5-3.9-0.8-8-0.2-12s2.1-7.9,4-11.4c1.9-3.5,4.3-6.7,7.4-9.5c3.1-2.7,6.6-4.5,10.1-6.3c3.5-1.8,6.9-3.5,9.8-6.1
			C221.5,50.4,223.9,47.1,225.9,43.8z"/>
	</g>
	<g>
		<path class="st0" d="M231.2,63.4c-1.4,2.9-3.2,5.8-5.6,8c-2.4,2.2-5.3,4-8.2,5.6c-2.9,1.6-5.6,3.2-7.9,5.5s-4,4.8-5.5,7.7
			c-1.3,2.9-2.2,5.9-2.6,9c-0.3,3.1,0.2,6.1,0.6,9.3c0.6,3.2,1.1,6.7,0.6,10.1c-0.3,3.5-1.4,6.9-2.9,10c-1.6,3.1-3.5,6.1-6.1,8.5
			c-2.6,2.6-5.6,4.3-8.5,5.9c-2.9,1.6-5.5,3.1-7.4,5.1c-2.1,2.1-3.7,4.5-5,7.2c-1.3,2.7-2.1,5.5-2.4,8.4c-0.3,2.7,0.2,5.6,0.6,8.8
			c0.6,3.2,1.1,6.9,0.6,10.8c-0.3,3.9-1.6,7.4-3.1,10.6c-1,2.1-3.4,2.9-5.3,1.9s-2.9-3.4-1.9-5.3v-0.2v-0.2c1.3-2.6,2.4-5.1,2.7-7.9
			c0.5-2.7,0.2-5.6-0.2-8.8c-0.5-3.2-0.8-6.9-0.2-10.6c0.5-3.7,1.9-7.1,3.5-10.3c1.8-3.1,3.9-6.1,6.6-8.5s5.9-4.2,8.8-5.5
			c2.9-1.4,5.6-2.7,7.9-4.8c2.2-1.9,4-4.3,5.6-7.1c1.4-2.7,2.6-5.6,3.1-8.5c0.5-3.1,0.2-6.1-0.2-9.3c-0.5-3.2-0.8-6.7-0.2-10.1
			c0.5-3.4,1.8-6.6,3.4-9.6c1.6-2.9,3.7-5.6,6.3-7.9c2.6-2.2,5.5-3.9,8.5-5.3c2.9-1.4,5.8-2.9,8.2-5.1
			C227.6,68.8,229.6,66.3,231.2,63.4z"/>
	</g>
	<path class="st0" d="M232.6,152c-2.7,38.7-35.3,69.2-74.2,69.2S87,190.7,84.2,152C133.7,152,183.1,152,232.6,152z"/>
	<rect x="136" y="134.9" class="st1" width="136.8" height="66.4"/>
	<rect x="-46" y="-5.6" class="st1" width="308.8" height="245.5"/>
</g>
</svg>
